<?xml version="1.0" encoding="UTF-8"?>
<!DOCTYPE svg  PUBLIC '-//W3C//DTD SVG 20010904//EN'  'http://www.w3.org/TR/2001/REC-SVG-20010904/DTD/svg10.dtd'>
<svg width="216pt" height="186pt" version="1.0" viewBox="0 0 216.000000 186.000000" xmlns="http://www.w3.org/2000/svg">
<g transform="translate(0 186) scale(.1 -.1)">
<path d="m1665 1820c4-12 3-20-1-17-5 3-10-10-11-29-4-58-7-74-15-74-5 0-21-19-36-43-16-26-33-42-41-39s-11 0-7-6c3-6 1-14-4-17-6-4-15-18-21-32-5-13-13-22-18-19-5 4-12 0-14-6-4-10-6-10-6 0-3 38 62 124 86 115 11-4 14-2 11 8-3 8 8 29 23 47 16 18 29 38 29 44s-13-7-29-28c-15-21-39-49-53-61-22-21-26-21-45-8-12 8-24 29-28 45-4 17-13 30-21 30s-13-5-11-11c1-6-4-14-10-16-7-3-13 0-13 6s-7 11-15 11-25 12-38 26c-23 24-33 21-35-10-1-17-25-23-53-13-23 9-32 8-51-8-14-13-18-14-10-4 11 14 9 17-13 21-14 3-28 1-32-5s-1-7 7-2 11 3 8-5c-2-7-12-14-22-16-35-5-48-14-42-30 4-11 2-15-8-11s-13 1-9-9c6-17 20-18 25-2 2 6 10 8 17 4 7-5 10-14 8-20-3-7 1-13 8-13s11 7 8 15c-5 12-2 12 17 2 15-8 20-8 16-1-5 7 1 11 14 11 12 0 18 4 15 10-4 6 1 7 11 3 12-4 15-3 10 5-12 20 26 0 50-25 11-12 25-19 29-15 5 4 5-2 1-13-5-15-4-17 4-9 9 9 9 17 0 34-7 12-7 20-2 16 6-3 12-1 14 5s13 9 23 6c19-5 19-5-2-12-13-4-20-12-16-21 4-11 8-12 19-3 16 13 27 7 30-17 2-10-3-14-12-10-8 3-14 0-14-6s-3-9-6-6c-3 4-14-2-25-13-15-15-24-17-39-9-11 6-20 16-20 23s-16 17-35 23c-30 9-33 9-23-3 9-11 9-17-3-24-11-7-10-9 6-9 19-1 19-1 2-11-20-12-13-31 8-22 10 3 15-1 15-12 0-10-5-15-13-12s-14-1-14-8c0-10 5-11 17-5 10 5 20 6 24 3 3-4 23-8 43-10 20-1 40-8 45-15 6-11 8-11 8 0 0 8 12 12 33 10 36-2 60 8 52 23-4 5-1 9 4 9 6 0 11-5 11-11 0-15-50-62-58-55-3 4-12 0-21-7-24-21-48-27-48-12 0 7 6 11 13 8 6-2 15 2 20 9 4 7 4 10 0 6-5-4-19-3-32 2s-24 6-24 1-9-11-20-14-18-1-15 3c3 5 1 11-5 15-5 3-10-2-11-12 0-11-3-13-6-5-2 6-9 10-14 6-16-10-9 8 9 22 15 12 15 13 1 8-20-6-92-91-95-110-1-8 3-11 9-7s8 1 5-8c-7-19 45-17 69 3 11 8 14 8 10 1-6-9 3-11 33-7 24 3 40 1 40-6 0-6-11-8-24-6-16 3-27-1-30-11-9-21-8-23 12-23 14 0 15 2 2 10-12 8-11 10 7 10 16 0 21-4 17-15-5-11-2-13 9-9 16 6 51-13 58-31 2-5 11-8 19-6 8 1 12 0 9-3-9-10-49-16-48-8 3 22-4 30-26 30-14 0-25-4-25-9s9-9 20-9 19-6 18-12c-2-9 8-13 29-12s30-2 27-10c-5-13-1-14 48-19 35-3 48-17 15-17-14 0-29-4-32-10-3-5-15-10-25-10-15 0-18-6-14-26 3-15 1-23-5-20-5 3-11 1-13-5-2-7-12-6-30 3-24 13-25 16-12 39 19 34 17 57-6 64-11 3-20 10-20 15s-7 7-15 4c-8-4-12-11-8-18 4-6-1-5-10 3-15 12-17 12-12-2 4-8 1-18-6-23-7-4-10-3-6 2 3 5-3 10-13 10-12 0-16-4-10-11 9-11-13-49-23-38-4 3-7 0-7-8 0-11-12-15-44-15-54-1-52 12 12 74 39 37 43 44 31 60-21 27-23 28-16 10 3-10 0-19-9-22-24-9-27-7-14 9 7 8 10 15 6 15-13 0-44-63-39-79 3-10 2-12-4-6-10 13-28 13-40 1-5-5-3-6 4-2 9 5 11 2 7-8-5-12-11-11-41 6-32 20-34 22-16 32 19 11 52 38 83 67 9 8 22 13 28 11 7-2 12 1 12 8 0 6-4 8-10 5-5-3-10-2-10 3 0 12-50 2-77-15-12-8-24-14-27-14-17 3-19 0-6-9 8-5 10-10 4-10-12 0-44 43-44 59 0 5 6 8 13 7 29-3 117 16 112 24-3 5-1 12 5 15 6 4 9 3 8-2-6-17 18-13 30 5 13 19 11 20-43 18-30-2-58-6-62-9-3-4-18-7-32-6-23 0-24 1-6 8l20 8-20 5c-16 5-17 6-2 7 9 0 17 5 17 11 0 5-7 7-15 4-10-4-15 0-15 11 0 9 6 15 13 12 6-2 20 0 31 5 13 7 16 7 12-1-7-11 12-16 43-11 8 1 11-4 8-13-3-7 1-14 9-14 7 0 15 6 18 14 3 7-1 13-9 13s-15 7-15 15c0 9-9 15-23 15s-24 6-24 15c0 8 6 15 14 15 7 0 13 4 13 9s-9 7-20 4c-22-6-28 12-7 20 7 3 5 6-5 6-10 1-18 7-18 15 0 21-20 30-33 17-8-8-7-11 4-11 12 0 12-2-1-10s-13-10 2-10c9 0 19-4 23-9 3-6-13-8-40-5-35 3-43 1-39-10 3-8 19-20 36-27l30-12-38-20c-22-10-43-24-49-31-5-6-44-43-86-82-59-56-87-75-130-88-63-19-101-40-54-30 17 3 37 8 45 11s24 8 34 10c11 2 25 8 33 14 9 9 13 8 13 0 0-6-12-17-27-23-22-9-24-12-10-15 9-3 23-3 30 0 6 2 17-3 24-12 10-14 11-14 10 3-2 21 79 94 111 101 26 5 27 2 6-30-16-24-42-37-28-13 4 7 3 8-4 4-6-4-9-13-6-21 4-8 10-13 14-10 9 6 71-24 82-40 13-17 9-25-9-19-16 5-16 4-2-5 9-6 20-22 23-36 4-14 13-25 21-25s15-3 14-7c-3-19 14-52 23-47 6 4 5-3-1-15-14-25-3-28 14-4 15 21 27 13 64-42 29-43 29-44 6-29-13 9-27 24-30 34-7 21-35 47-35 33 0-6 11-23 25-39s25-32 25-36 10-10 23-14c12-4 33-15 46-26 32-24 40-14 10 12l-24 21 31-15c32-15 57-50 28-39-16 6-20-12-4-22 6-3 10-12 10-18 0-7-10 0-21 16-11 15-26 24-31 21-6-4-17 1-24 11s-20 15-29 12c-8-4-15-2-15 4s-4 7-10 4c-5-3-10-1-10 4 0 6-9 11-20 11s-20 6-20 13c0 14-6 16-62 20-18 2-32 8-31 14 3 12-88-34-99-51-4-6-10-7-14-4-3 4 1 14 10 23 20 20 20 29 1 45-10 9-15 9-15 1 0-6 5-11 10-11 6 0 10-4 10-10 0-5-6-10-14-10s-16-5-18-12c-3-7-7-6-11 5-4 10-2 17 6 17s6 4-3 10c-12 8-12 10-1 10s9 5-5 21c-19 21-19 22 2 15 27-8 38 15 22 49-13 29-30 34-26 8 2-10-2-17-9-16-8 2-11-8-8-32 3-20 0-35-5-35-6 0-10-6-10-14 0-9-7-12-20-9-18 5-18 7-6 17 13 10 13 13 1 30-8 11-15 15-15 10 0-6 6-16 13-23 10-11 8-12-10-7-18 6-21 3-19-16 2-13 13-42 24-65 27-53 28-63 2-30-11 14-20 30-20 37 0 6-4 8-10 5-6-4-6-12 0-23 18-34 50-115 50-128 0-8-4-14-10-14-5 0-7 6-4 14s-6 32-21 53c-25 36-27 36-22 11 5-30-7-38-17-12-3 8-10 13-14 10-5-3-6 8-4 25 2 16 0 29-6 29-15 0-9-70 8-80 8-5 11-10 5-10-16 1-45 26-38 33 3 4 1 7-6 7-9 0-11 8-8 21 3 12 0 22-9 26-8 3-11 10-7 16s1 8-8 5c-10-4-14 3-14 26 0 17 4 34 8 37 11 8-3 40-15 33-12-8-3 26 18 70 8 16 12 31 9 34-2 2-10-8-17-24s-16-31-20-35c-13-9-10-179 3-179 4 0 5-16 2-35-3-22 0-35 7-35 6 0 9-4 6-9-4-5 0-12 6-14 10-4 10-6 1-6-7-1-13-13-13-27 0-17 4-23 13-19 6 4 3-1-7-9-18-15-18-16-2-16 9 0 15-4 12-9-4-5 2-7 13-4 17 4 38-23 26-35-3-3-5 0-5 6 0 7-5 12-11 12-5 0-8-4-5-9 8-12-28-21-44-11-7 4-10 15-7 23 4 11 1 14-7 11-7-3-19 2-26 11-7 8-17 15-23 15s-1-7 11-16c12-8 20-19 17-24-10-17 27-60 59-69 17-5 23-10 13-10-10-1-32 6-49 15-29 15-30 15-24-1s4-16-11-4-16 12-10-4c4-11 3-16-3-12s-9 14-8 23c2 9-2 17-9 17-6 0-15 4-20 9-4 5 3 7 18 4 17-3 26 0 26 8 0 7-3 13-6 12-36-4-47 4-49 33-1 17-7 39-12 49-5 9-6 20-3 24 3 3 2 6-4 6s-10 19-9 46c1 25-2 48-6 50-5 3-8 26-8 51 0 38 3 44 16 39s14-4 5 7c-14 18 9 68 52 115 17 18 25 32 18 32-11 0-11 3 0 18 13 15 12 16-4 3-10-8-37-52-59-98-40-81-41-87-44-195-3-102-5-113-27-135-13-13-46-31-73-39l-49-14 45 6c25 3 49 9 55 15 5 5 13 9 18 9s-1-9-14-20c-31-26-19-25 28 1 21 12 35 18 31 13-4-4-3-13 3-20 10-12 20-88 10-79-2 2-16-2-32-10-15-8-35-12-43-9-11 4-16 1-16-10 0-15-4-15-33-2-18 7-48 12-66 11-22-2-38 4-52 18-11 12-19 15-19 8 0-8-9-7-29 5-17 10-28 21-25 26 3 4-4 8-15 8-23 0-28 15-8 23 7 3 5 6-5 6-12 1-15 6-11 18 5 12 3 14-7 8s-12-4-7 7c4 12 1 14-16 10l-22-6 19 30c15 21 15 26 4 16-14-11-17-10-23 7-10 31-16 62-24 121l-8 55-2-50c-2-118 44-244 111-301 54-45 148-84 209-86 92-3 147 5 142 19-7 17 5 16 23-2 9-8 12-15 8-15-3 0-1-7 6-15 11-13 10-18-6-30-10-8-15-15-10-15s2-8-5-17c-12-15-12-16 1-8 12 7 13 6 3-7-7-8-9-18-5-22 7-7 8-12 11-38 0-6 4-8 8-5 3 4 12-1 20-11 8-9 12-11 8-4-7 14 1 14 30 2 11-5 14-9 8-9-7-1-13-6-13-12 0-7 10-9 28-4 26 6 26 6 7-9-26-20-55-20-55 0 0 8-4 13-9 10-4-3-6-18-3-32 3-17 1-25-5-21s-8-4-5-20c4-21 2-25-10-20-9 3-21 0-28-6-10-10-11-4-7 25s3 36-9 31c-10-4-14 4-15 33l-1 39-9-48c-9-43-7-51 16-81 23-31 30-34 74-32 34 1 47 5 44 13-5 13 23 30 33 20 3-3 0-15-6-27-11-20-10-21 9-11 11 6 23 16 26 21 3 6 14 10 23 10 10 0 25 9 35 20 16 19 15 22-24 60s-41 43-36 83c3 24 27 80 52 125 32 56 46 94 47 120 0 51 24 67 70 48 18-8 42-23 51-34 10-11 31-25 47-32 28-12 40-41 40-100 0-15 7-34 16-41s27-37 40-65c22-47 67-94 91-94 28 0 70-76 75-136 1-8 9-8 29 0 19 6 24 13 16 18-13 8 0 14 48 21 17 3 42 8 58 12 27 7 27 6 17-21-8-20-8-29 2-35 6-4 15-6 18-4 15 9 4-51-13-68-10-10-16-21-13-25 4-3 12 3 19 13 22 29 46 8 35-32-8-29-11-31-31-22-24 11-74 120-70 152 2 9-2 17-8 17s-9-12-7-27c2-22-2-28-22-33-25-6-25-6-2-12 33-9 27-32-14-44l-36-12 5 44c4 38 3 41-10 28-8-8-12-22-9-30 5-13 2-15-14-11-11 3-20 1-20-4s7-9 15-9c20 0 19-17-2-29-15-9-12-10 15-11 17 0 32 4 32 9 0 17 34 22 48 7 23-23 7-50-24-42-17 5-23 3-19-4 10-17 51-11 70 10l18 20 35-20c40-24 64-20 82 15 9 18 22 25 42 25 44 0 36 37-24 110-15 19-28 39-28 45 0 20 45 39 90 36 25-2 42 1 38 5s-3 13 2 19c7 8 4 20-9 37-11 14-27 62-36 113-14 74-15 98-5 151 7 35 10 71 6 79-3 9-2 13 4 10s10 3 10 14c0 10-6 22-12 24-8 4-7 6 4 6 12 1 17 13 20 51 1 28-1 50-6 50s-3 7 4 15 9 15 4 15c-14 0-15 97-1 108 26 20 71 22 189 7 226-29 223-29 252-10 15 10 34 31 42 47 15 29 15 30-6 23-23-7-80 11-80 26 0 5 5 9 11 9 25 0 0 24-41 40l-45 17 62 8c38 4 69 3 81-4 29-15 62-60 62-83 0-25 18-19 44 15 13 17 21 48 24 87 4 53 1 65-22 100-31 47-32 68-7 112 36 60 37 232 1 178-5-8-10-19-10-25 0-5 5-3 10 5 7 11 9 4 9-25-1-52-13-91-27-88-6 2-9-4-6-12 4-9 0-15-10-15-9 0-16-6-16-14 0-7-8-20-17-27-16-13-17-12-5 3 11 14 11 16-7 11-12-3-18-10-14-17 4-6-1-5-10 3-26 20-21 37 17 61 19 11 44 36 55 54 28 45 27 57-2 15-12-18-38-44-57-57-37-25-28-24-179-6-19 3-38 7-42 10-18 11-40 65-34 84 3 10 37 51 76 92 65 67 109 132 109 158 0 6-21-13-47-42s-54-53-62-53c-23-1-44-17-64-47-10-16-27-28-38-28s-17-5-14-10c4-6 12-8 18-4 7 3 1-4-13-15-28-23-36-25-45-11-3 6-1 10 4 10 6 0 11 6 11 13 0 20 107 113 133 116 13 1 31 15 57 46l25 30-25-21c-14-12-40-29-58-39-19-9-67-48-108-86-72-66-104-84-104-56 0 7 11 28 24 48 13 19 29 53 35 74 14 52 14 142 0 151-8 4-9-1-4-16zm-365-117c0-3-6-3-14 0s-20-1-26-9c-7-8-17-14-22-14-6 0 0 8 13 19 20 16 49 19 49 4zm158-32c11-7 11-9-1-14-16-6-27 0-27 15 0 10 11 10 28-1zm52-36c0-8-2-15-4-15s-6 7-10 15c-3 8-1 15 4 15 6 0 10-7 10-15zm-17-19c10-8 14-17 8-20-8-5-41 18-41 30 0 8 15 3 33-10zm-99-57c3 1 6-2 5-5 0-4 5-10 12-15 24-15 0-22-43-13l-43 9 25 23c15 14 26 18 31 11 3-6 9-10 13-10zm75 4c-6-6-17-9-25-6-19 7-10 19 15 19 15 0 17-4 10-13zm210-37c25-26 14-43-14-22-19 13-30 46-16 46 4 0 18-11 30-24zm-681-81c2-10-2-21-9-25-14-9-50 10-43 22 3 5 10 6 15 2 5-3 9-2 8 3-5 30 24 29 29-2zm332-5c0-5-5-10-11-10-5 0-7 5-4 10 3 6 8 10 11 10 2 0 4-4 4-10zm-88-32c-10-10-44 0-37 12 3 5 14 6 26 3s17-9 11-15zm228 18c0-2-9-6-20-9s-18-1-14 4c5 9 34 13 34 5zm120-11c7-9 8-15 2-15-5 0-12 7-16 15-3 8-4 15-2 15s9-7 16-15zm-300-17c0-5 4-7 9-3 5 3 12 1 15-4 4-5-2-8-11-6-10 2-21 4-24 4-4 1-9 8-12 15-4 10-1 13 9 9 7-3 14-9 14-15zm130 18c0-2-7-9-15-16-13-11-14-10-9 4s24 23 24 12zm313-13c-13-5-6-33 8-33 5 0 8 3 8 8-3 20 2 32 16 32 8 0 15-7 15-16 0-8-4-12-10-9-5 3-10 1-10-5s10-15 23-21c21-9 21-9-3-5-22 5-26 1-28-20-1-14 2-23 7-20s14-1 22-10c10-12 10-18-3-30-14-14-16-14-22 1-4 13-2 16 9 11 8-3 15-2 15 3 0 16-13 21-27 10-9-8-13-8-13-1s-7 9-17 5c-14-5-13-8 7-15 18-7 20-11 10-23-11-13-10-14 5-9 11 5 16 4 12-3-4-6 3-8 20-5 21 4 25 2 20-12-4-11-1-16 11-17 9 0 26-2 37-4 11-3 26 3 33 12 11 15 12 15 12 1 0-21-15-31-52-35-17-2-28 2-28 10s-3 7-10-3c-6-9-5-17 3-23s7-7-3-4c-8 2-14 10-13 16 4 17-8 13-23-6-13-17-14-17-8 0 5 13 2 16-12 11-15-6-17-4-7 6 9 10 8 16-3 28-12 12-18 12-27 2s-9-11 0-6c6 3 14 2 18-4 3-5-2-10-12-10-20 0-56 20-36 20 8 0 10 7 6 17-4 9-8 12-10 6-2-5-16-8-31-7-15 2-21 1-14-2 6-3 9-11 5-17-4-7 2-5 12 3 17 14 18 13 12-2-4-13-1-18 11-18 14-1 13-4-7-20-13-11-17-20-10-20s10-2 7-5-13-2-23 1c-15 6-15 8 6 20 26 15 24 16-49 23-7 0-10 6-7 12 4 6-1 5-13-2-17-10-25-9-53 9-19 12-27 22-18 22 8 0 21-6 28-12 11-10 13-10 7 0-5 8 1 12 18 12 14 0 28 5 31 10 3 6 11 10 16 10 6 0 7-5 3-12-13-20 19 4 45 34 15 19 29 27 41 23 10-3 21-1 25 5 3 6 11 8 16 5 15-10 10 2-8 16-14 12-16 12-8 0 6-11 4-13-7-9-8 4-31-3-49-14l-34-20 19 21c11 11 14 21 9 21-6 0-16-7-23-15s-18-15-24-15 1 11 17 24c18 16 26 30 22 42-3 11 1 7 8-8 15-32 36-24 32 13-3 23 0 26 28 26 18 0 27-2 20-4zm-483-18c-7-8-22-15-34-15-20 1-20 2 4 15 33 19 46 19 30 0zm110-6c7-12 18-18 26-15 9 3 12 1 9-4-3-6-16-10-28-10-20 0-20 0-1-15 18-14 18-14-3-8-26 6-28 14-11 31 9 9 7 13-5 18-18 7-23 24-7 24 5 0 14-9 20-21zm450 6c0-8-4-15-10-15-5 0-7 7-4 15 4 8 8 15 10 15s4-7 4-15zm34 3c-5-9-2-8 9 1 27 22 32 5 7-26-13-16-20-20-17-10 4 11 1 20-8 23-16 6-11 24 6 24 6 0 7-6 3-12zm72 3c-7-11 20-22 38-15 8 3 16-4 19-17 4-15 3-19-5-11-6 6-17 8-24 5-8-3-14-1-14 5 0 5-11 8-25 7-29-4-30-2-9 19 17 17 28 21 20 7zm-986-6c0-9-40-45-49-45-5 0-11-5-13-11-2-5-11-7-21-4-20 8-15 20 15 36 16 9 19 8 13-3-4-7 2-3 14 10 20 20 41 29 41 17zm70-56c13-23 14-22-18-38-31-16-34-11-21 27 13 37 24 40 39 11zm484 12c2-3-9-6-25-6-16-1-29 2-29 6 0 8 49 9 54 0zm471-10c-3-6-11-8-17-5-6 4-5 9 3 15 16 10 23 4 14-10zm-532-14c4 3 7 1 7-5 0-7 5-12 11-12 5 0 7 5 4 10-3 6-2 10 4 10 17 0 22-18 6-24-22-8-65 14-65 33 1 14 2 14 14-1 7-10 16-15 19-11zm-575-15c2-7-2-10-12-6-11 4-16 0-17-12 0-17-1-17-8 1-5 11-6 24-4 28 7 12 36 4 41-11zm711 15c-2-1-15-11-28-22l-24-20 12 23c6 12 19 22 28 22s14-1 12-3zm-49-51c0-2-18-6-39-8-22-2-37 0-35 4 5 8 74 11 74 4zm548-10c12-4 22-14 22-22s5-14 11-14c5 0 7-5 4-10-5-8-11-7-21 1-8 6-17 9-21 5-3-3-1-6 6-6s11-6 8-12c-2-7 0-20 4-30 10-18-16-35-26-17-4 5-11 6-17 3-6-4-8-2-4 4 3 6-2 17-13 24-20 14-21 24-8 65 8 21 14 23 55 9zm-103-26c3-6-1-7-9-4-18 7-21 14-7 14 6 0 13-4 16-10zm-891-26c22-22 20-31-8-36-25-5-36 7-36 38 0 19 25 18 44-2zm793-30c-3-3-12-4-19-1-8 3-5 6 6 6 11 1 17-2 13-5zm-222-24c3-5-1-10-10-10s-13 5-10 10c3 6 8 10 10 10s7-4 10-10zm-469-15c-19-14-36-12-36 6 0 5 12 9 28 9 26-1 26-1 8-15zm174-15c0-11-7-20-15-20-13 0-14 4-5 20 6 11 13 20 15 20 3 0 5-9 5-20zm220 11c0-5-7-11-14-14-10-4-13-1-9 9 6 15 23 19 23 5zm-60-32c-7-11-14-19-16-16-7 7 7 37 17 37 6 0 5-9-1-21zm-630 3c0-5-7-9-15-9s-15 4-15 9c0 4 7 8 15 8s15-4 15-8zm691-13c-24-20-43-22-42-4 1 6 10 10 20 10 11 0 23 3 27 8 4 4 10 7 13 7 3-1-5-10-18-21zm149-1c0-5-14-7-32-4-22 3-35 0-44-12-10-13-12-14-11-2 2 8 6 20 9 26 8 12 78 6 78-8zm195 2c-3-5-22-10-41-10s-34 5-34 10c0 6 18 10 41 10 24 0 38-4 34-10zm-151-9c3-5-1-14-9-21-13-10-15-9-15 9 0 21 14 28 24 12zm71-32c6-4 32-13 58-20 47-11 54-20 19-25-9-2-19 1-22 5-8 13-54 25-46 12 4-7-1-11-13-11-11 0-23 5-26 10-3 6 1 10 10 10s13 5 10 10c-3 6-15 10-26 10-10 0-19 4-19 9 0 10 39 3 55-10zm-629-29c8 0 14-5 14-11 0-5-6-7-12-3-25 14-48 37-47 48 0 6 7 1 16-11 8-13 22-23 29-23zm361 34c-3-3-12-4-19-1-8 3-5 6 6 6 11 1 17-2 13-5zm83-9c-7-8-18-15-24-15s-2 7 8 15c25 19 32 19 16 0zm40-5c-8-5-19-10-25-10-5 0-3 5 5 10s20 10 25 10c6 0 3-5-5-10zm285-20c3-5-1-10-10-10s-13 5-10 10c3 6 8 10 10 10s7-4 10-10zm-648-6c-3-3-12-4-19-1-8 3-5 6 6 6 11 1 17-2 13-5zm-226-48c27-17 49-38 48-46 0-12-2-12-12 2-14 18-94 31-103 17-3-5 15-9 39-9 31 0 49-6 62-20 10-11 14-20 9-20s-2-4 6-10c8-5 11-12 8-15-4-4-17 0-30 9-12 9-29 16-38 16-8-1-1-7 15-14 34-15 83-64 53-53-13 4-16 2-12-11 5-16 5-16-8 0-10 11-19 14-29 7-12-7-12-9 1-10 8-1 2-5-15-9l-30-8 28-1c15 0 27-7 27-14 0-15-42-18-52-3-5 7-8 7-8-1 0-7-7-13-15-13s-15 7-15 15c0 21-9 19-30-5-11-13-21-17-25-10-9 15-25 12-25-5 0-8-5-15-10-15-7 0-7 6 0 19 7 14 7 22 0 26-8 5-7 11 1 21s7 17-4 29c-9 8-22 15-29 15-10 0-9 3 2 10 13 8 12 10-2 10-10 0-18 5-18 11s7 9 15 5c10-3 15 1 15 12 0 10 5 23 12 30 9 9 9 12 1 12-7 0-15-9-18-20-9-28-25-25-25 5 0 16 10 31 28 42 15 10 33 23 39 29 20 19 90 4 144-30zm80-39c-13-13-26-3-16 12 3 6 11 8 17 5 6-4 6-10-1-17zm25-30c1-9-2-17-7-17s-9 2-9 4-3 12-7 22c-4 11-2 15 7 12 7-2 14-12 16-21zm110-5c1-7 0-8-3-2-2 5-9 8-14 4-5-3-9 0-9 6 0 15 23 7 26-8zm-499-14c-3-8-6-5-6 6-1 11 2 17 5 13 3-3 4-12 1-19zm443-14c0-8-4-14-10-14-5 0-10 9-10 21 0 11 5 17 10 14 6-3 10-13 10-21zm40 6c0-5-2-10-4-10-3 0-8 5-11 10-3 6-1 10 4 10 6 0 11-4 11-10zm-67-33c-3-5-9-3-14 4-4 7-5 17-2 22s9 3 14-4c4-7 5-17 2-22zm-453 13c0-5-2-10-4-10-3 0-8 5-11 10-3 6-1 10 4 10 6 0 11-4 11-10zm411-16c20-21 20-24 5-18-16 6-18 4-12-11 4-11 4-16 0-12s-14 1-23-6c-13-10-13-7 2 15 10 16 13 29 7 33-9 6-14 25-7 25 2 0 14-11 28-26zm-444 2c-5-16-24-18-30-4-3 9 3 14 14 14s18-5 16-10zm127-55c-3-3-11 2-18 12-7 9-18 17-25 17-6 0-11 8-11 17 0 13 6 11 30-12 16-16 27-31 24-34zm-63 17c21-17 39-36 39-42 0-8-2-8-8 0-4 6-14 13-22 17s-22 11-30 16-23 12-33 15c-18 6-15 26 4 26 6 0 28-14 50-32zm-27-24c5-14 4-15-9-4-17 14-19 20-6 20 5 0 12-7 15-16zm246-34c0-5 8-7 18-3 13 5 12 0-7-20-23-25-23-26-2-20 15 4 21 1 19-7-2-7 3-15 10-17 17-6 11 18-8 35-13 12-13 13 3 8 14-5 17-2 12 13-4 14-1 18 17 16 13-1 29-3 36-4 6 0 12-6 12-12 0-5-4-8-9-5-4 3-16-3-26-14-12-13-14-20-6-20 9 0 8-5-3-15-8-8-20-15-27-15-8 0-8-4 2-16 11-13 10-15-3-12-9 1-17-1-16-6 0-5-6-13-14-17-10-7-10-9 2-9 9 0 16-9 17-20s-2-18-8-15c-5 4-9 1-9-5 0-7 8-9 20-5 11 4 20 2 20-4s-5-11-11-11c-5 0-8-4-4-10 3-5 13-6 22-3 10 4 14 2 9-5-4-8 3-8 26-1 40 11 38 11 38-1 0-5-6-10-14-10s-17-4-21-10c-3-5 6-5 24 1 17 6 36 9 43 6 7-2 1-8-14-12-16-4-28-11-28-16 0-4 14-3 30 3 38 13 62 5 53-18-5-13-3-15 8-9 8 5 11 5 6-1-5-5-12-9-16-9s-16-9-27-19c-13-14-14-18-4-14 47 17 62 20 56 9-4-6-14-11-22-11s-14-5-14-10c0-6 13-4 30 5 28 15 30 14 30-3 0-10-9-27-21-38-26-24-67-80-51-70 21 13 35-5 15-19-17-13-16-14 6-8 17 4 22 3 17-5s-1-10 9-5c13 5 14 7 3 14-10 7-9 9 5 9 9 0 17-5 17-11 0-7 11-9 30-5 17 3 30 2 30-3 0-10-96-24-109-16-5 2-8-3-7-13 0-9-6-17-14-17-11 0-16 13-18 48-2 26 1 47 5 47 5 0 9 9 9 19 0 11-4 17-8 15-4-3-8-1-8 5 0 5-9 9-19 8-12-1-17-7-14-17 4-13 3-13-9 0-7 8-20 16-27 18-8 2-21 11-28 20-19 25-56 104-58 127-2 11-8 33-14 48-6 16-7 26-2 22 5-3 12-1 16 5 3 5 0 10-7 10-15 0-53 83-53 115 0 11 4 26 9 33 10 14 46 16 46 2zm137-36c-3-3-12-4-19-1-8 3-5 6 6 6 11 1 17-2 13-5zm-497-19c-27-14-36-13-25 4 3 6 16 11 28 11 21-1 21-1-3-15zm490-5c0-13-11-13-30 0-12 8-11 10 8 10 12 0 22-4 22-10zm150-47c0-24 3-33 9-25 5 8 7-2 5-25-1-21-3-51-3-68l-2-30-24 28c-21 23-25 39-25 87 0 54 6 66 33 69 4 1 7-16 7-36zm-205 7c3-5 1-10-4-10-6 0-11 5-11 10 0 6 2 10 4 10 3 0 8-4 11-10zm-765-51c0-6-4-7-10-4-5 3-10 11-10 16 0 6 5 7 10 4 6-3 10-11 10-16zm260 11c0-5-5-10-11-10-5 0-7 5-4 10 3 6 8 10 11 10 2 0 4-4 4-10zm-36-12c-3-4-11-5-19-1-21 7-19 12 4 10 11 0 18-5 15-9zm-23-13c24-10 28-14 14-14-11 0-29 6-39 14-25 19-17 19 25 0zm769-204c0-5 8-12 18-14 9-3 3-5-14-6-19-1-41-11-58-27-27-28-33-26-16 6 5 10 21 21 35 24 14 4 23 11 20 16-3 6-1 10 4 10 6 0 11-4 11-9zm10-41c0-5-8-10-17-10-16 0-16-2-3-11 12-8 10-9-9-4-16 5-21 4-17-4 4-6 0-11-8-11-27 0-17 20 17 35 39 17 37 17 37 5zm-717-27c-7-2-19-2-25 0-7 3-2 5 12 5s19-2 13-5zm-113-24c0-6-4-7-10-4-5 3-10 11-10 16 0 6 5 7 10 4 6-3 10-11 10-16zm838 5c-9-9-22-14-30-11s-4 8 12 15c35 15 37 14 18-4zm-703-5c9-13-27-40-39-29-12 12 0 40 18 40 8 0 18-5 21-11zm770-18c3-5 0-13-6-17-7-4-9-3-5 4 3 5 0 13-6 15-9 4-10 6-1 6 6 1 14-3 18-8zm-855-32c0-5-7-9-15-9-15 0-20 12-9 23 8 8 24-1 24-14zm895-32c4 4 5 0 2-9-4-12-1-18 9-18 12 0 13-4 3-22-11-21-12-21-25-3-8 11-13 24-11 30 2 5-3 15-11 21-9 7-12 16-7 24 6 9 11 7 19-9 7-12 16-18 21-14zm41-83c-4-12-10-14-17-7-5 5-7 17-3 27 4 12 10 14 17 7 5-5 7-17 3-27z"/>
<path d="m1660 1521c0-5 7-12 16-15 14-5 15-4 4 9-14 17-20 19-20 6z"/>
<path d="m1661 1291c-14-11-19-21-13-25 5-3 13 1 16 10s13 14 21 11c9-4 12-1 8 9-6 17-3 17-32-5z"/>
<path d="m974 964c-18-14-18-14 6-3 31 14 36 19 24 19-6 0-19-7-30-16z"/>
<path d="m1038 963c7-3 16-2 19 1 4 3-2 6-13 5-11 0-14-3-6-6z"/>
<path d="m937 892c-20-22-22-38-5-48 7-4 8-3 4 5-4 6 0 23 8 36 19 29 16 32-7 7z"/>
<path d="m1053 1653c1-35 6-53 14-53 6 0 16-7 21-16 5-10 19-14 36-12l28 3-21 24c-26 30-26 30 2 25 12-2 15-1 7 2-25 11-50 36-44 45 3 5-4 9-15 9-10 0-22 6-24 13-3 6-5-12-4-40zm47-43c0-5-2-10-4-10-3 0-8 5-11 10-3 6-1 10 4 10 6 0 11-4 11-10z"/>
<path d="m1210 1600c-9-6-10-10-3-10 6 0 15 5 18 10 8 12 4 12-15 0z"/>
<path d="m980 1580c0-5 5-10 10-10 6 0 10 5 10 10 0 6-4 10-10 10-5 0-10-4-10-10z"/>
<path d="m1200 1550c-9-6-10-10-3-10 6 0 15 5 18 10 8 12 4 12-15 0z"/>
<path d="m1160 1508c-19-8-21-12-10-16 8-3 19-10 23-16 6-7 7-5 4 5-3 9 0 22 6 28 13 13 10 13-23-1z"/>
<path d="m1204 1482c3-5 0-13-6-15-8-3-6-6 5-6 19-1 23 14 5 25-6 4-8 3-4-4z"/>
<path d="m1225 1320c-13-6-15-9-5-9 8 0 22 4 30 9 18 12 2 12-25 0z"/>
<path d="m1238 1288c9-9 9-15-1-27s-7-11 13 2c14 9 28 16 33 17 4 0 7 2 7 5v12c0 4-5 2-12-5-15-15-32-16-23-2 3 6-2 10-11 10-14 0-15-3-6-12z"/>
<path d="m603 1230c-18-11-33-22-33-25 0-2 16 5 35 16 19 12 35 23 35 25 0 6-3 5-37-16z"/>
<path d="m670 1235c-20-24-6-28 15-5 10 11 13 20 8 20-6 0-16-7-23-15z"/>
<path d="m866 1235c-9-26-7-32 5-12 6 10 9 21 6 23-2 3-7-2-11-11z"/>
<path d="m1403 1213c9-2 23-2 30 0 6 3-1 5-18 5-16 0-22-2-12-5z"/>
<path d="m670 1190c-9-6-10-10-3-10 6 0 15 5 18 10 8 12 4 12-15 0z"/>
<path d="m909 1173c-13-17-13-17 6-3 11 8 22 16 24 17 2 2 0 3-6 3s-17-8-24-17z"/>
<path d="m104 1093c-11-10-13-13-5-8 12 9 12 7 2-13-7-12-16-20-21-17-9 5-30-25-30-42 1-4 7 3 14 17l14 25 7-40c10-59 13-64 14-22 1 21 8 52 17 68 20 39 14 56-12 32z"/>
<path d="m985 1099c-4-6-5-12-2-15 2-3 7 2 10 11 7 17 1 20-8 4z"/>
<path d="m1020 1094c-17-9-20-14-9-14 9 0 22 7 29 15 15 18 13 18-20-1z"/>
<path d="m720 965c0-5 5-17 10-25s10-10 10-5c0 6-5 17-10 25s-10 11-10 5z"/>
<path d="m100 908c0-16 23-68 30-68 5 0 1 15-7 33-17 34-23 43-23 35z"/>
<path d="m140 823c0-10 67-83 75-82 3 0 19-5 35-12 22-10 26-16 18-26-7-9-7-13 0-13 5 0 12 7 16 15 4 10-8 22-37 36-23 12-57 37-74 56-18 19-33 31-33 26z"/>
<path d="m557 813c-4-6 0-14 9-17 8-3 13-10 9-15-3-5-1-12 4-15s12 1 15 10c8 22 8 24-8 24-8 0-16 5-18 12-3 8-6 9-11 1z"/>
<path d="m516 751c-3-5 1-11 9-14 9-4 12-1 8 9-6 16-10 17-17 5z"/>
<path d="m618 723c7-3 16-2 19 1 4 3-2 6-13 5-11 0-14-3-6-6z"/>
<path d="m396 652c-3-6-1-14 5-17 14-9 20-2 10 14-6 8-11 9-15 3z"/>
<path d="m280 640c0-5 5-10 11-10 5 0 7 5 4 10-3 6-8 10-11 10-2 0-4-4-4-10z"/>
<path d="m472 500c-17-27-15-35 4-16 8 9 14 21 12 26-2 6-9 1-16-10z"/>
<path d="m460 447c0-28 22-87 32-87 7 0 6 5-2 15-10 12-10 15 0 15s10 3 0 15c-7 8-10 21-7 29s-1 17-9 20-14 0-14-7z"/>
<path d="m518 353c7-3 16-2 19 1 4 3-2 6-13 5-11 0-14-3-6-6z"/>
<path d="m1171 154c0-11 3-14 6-6 3 7 2 16-1 19-3 4-6-2-5-13z"/>
<path d="m1330 160c-24-15-7-18 20-3 14 7 18 13 10 13s-22-4-30-10z"/>
<path d="m1345 140c-3-6 1-7 9-4 18 7 21 14 7 14-6 0-13-4-16-10z"/>
</g>
</svg>
