<svg xmlns="http://www.w3.org/2000/svg" width="275.119" height="276.129" viewBox="0 0 72.792 73.059"  xmlns:v="https://vecta.io/nano"><path d="M4.175 33.59zm10.046-4.031q.289 0 .289.31V33.3q0 .289-.289.289H4.423q-.248 0-.248-.289V4.258q0-.31.248-.31h3.7q.289 0 .289.31v25.053q0 .248.248.248h5.56zm1.984 4.031zm11.39-29.642q.248 0 .248.31v27.037q0 .992-.765 1.654-.744.641-1.674.641h-6.945q-.93 0-1.592-.682-.661-.682-.661-1.509V4.258q0-.31.248-.31h3.7q.289 0 .289.31v25.135q0 .269.248.269h2.667q.269 0 .269-.269V4.258q0-.31.289-.31h3.679zm2.377 29.642zm11.431-2.542q0 1.054-.744 1.798-.744.744-1.798.744h-6.387q-1.054 0-1.778-.744-.723-.744-.723-1.798V6.49q0-1.054.723-1.798.723-.744 1.778-.744h6.387q1.054 0 1.798.744.744.744.744 1.798v5.684q0 .289-.248.455l-3.431 2.542q-.083.083-.207.021-.124-.062-.124-.186v-6.47q0-.475-.475-.475h-2.191q-.517 0-.517.475v20.65q0 .165.145.331.145.145.372.145h2.191q.207 0 .331-.145.145-.165.145-.331V21.6q0-.124.124-.186.124-.062.207.021l3.431 2.542q.248.165.248.434v6.635zm1.261 2.542zm7.917-9.736q.227 0 .227-.207l-1.406-12.836q-.041-.165-.124-.165-.083 0-.124.165l-1.406 12.836q0 .207.207.207zM46.694 33.3q0 .289-.289.289h-3.473q-.269 0-.269-.289l3.514-29.042q0-.31.269-.31h5.788q.269 0 .269.31L56.017 33.3q0 .289-.269.289h-3.597q-.289 0-.289-.289l-.599-5.25q0-.165-.248-.165h-3.473q-.083 0-.165.041-.083.041-.083.124zm10.584.29zm0-11.72q0-.124.124-.186.124-.083.207.021l3.431 2.48q.269.186.269.434v4.858q0 .269.248.269h2.667q.248 0 .248-.269v-7.524q0-.31-.207-.434l-5.85-4.134q-.682-.475-.91-.93-.227-.475-.227-1.116V6.284q0-.972.661-1.654.682-.682 1.674-.682h6.677q.972 0 1.654.682.682.682.682 1.654v3.948q0 .207-.207.413l-3.473 2.625q-.083.083-.227.021-.124-.062-.124-.186V8.268q0-.289-.248-.289H61.68q-.248 0-.248.289v5.416q0 .31.207.434l5.788 4.155q1.199.847 1.199 1.984v10.997q0 .972-.744 1.654-.744.682-1.716.682h-6.553q-.992 0-1.674-.682-.661-.682-.661-1.654z"/><g stroke="#000" stroke-width="2.5"><path d="M1.25 1.25h70.292v35.28H1.25z" fill="none"/><path d="M1.25 36.529h70.292v35.28H1.25z"/></g><path d="M3.373 69.136zm10.046-4.031q.289 0 .289.31v3.431q0 .289-.289.289H3.621q-.248 0-.248-.289V39.805q0-.31.248-.31h3.7q.289 0 .289.31v25.053q0 .248.248.248h5.56zm1.985 4.031zm4.403-11.265q-.165.165-.165.517v10.501q0 .248-.248.248h-3.741q-.248 0-.248-.289V39.805q0-.31.248-.31h9.074q.972 0 1.633.682.682.682.682 1.654v8.888q0 .972-.372 1.695-.372.723-1.261 1.406zm2.542-6.801q.558-.434.558-.951v-6.346q0-.248-.269-.248h-2.749q-.248 0-.248.248v8.93q0 .083.062.165.062.062.186-.021zm6.614 18.066zm0-11.72q0-.124.124-.186.124-.083.207.021l3.431 2.48q.269.186.269.434v4.858q0 .269.248.269h2.667q.248 0 .248-.269v-7.524q0-.31-.207-.434l-5.85-4.134q-.682-.475-.91-.93-.227-.475-.227-1.116v-9.054q0-.972.661-1.654.682-.682 1.674-.682h6.677q.972 0 1.654.682.682.682.682 1.654v3.948q0 .207-.207.413l-3.473 2.625q-.083.083-.227.021-.124-.062-.124-.186v-4.837q0-.289-.248-.289h-2.667q-.248 0-.248.289v5.416q0 .31.207.434l5.788 4.155q1.199.847 1.199 1.984v10.997q0 .972-.744 1.654-.744.682-1.716.682h-6.553q-.992 0-1.674-.682-.661-.682-.661-1.654zm12.61 11.72zM49.49 59.4q.227 0 .227-.207l-1.406-12.836q-.041-.165-.124-.165-.083 0-.124.165l-1.406 12.836q0 .207.207.207zm-3.886 9.446q0 .289-.289.289h-3.473q-.269 0-.269-.289l3.514-29.042q0-.31.269-.31h5.788q.269 0 .269.31l3.514 29.042q0 .289-.269.289H51.06q-.289 0-.289-.289l-.599-5.25q0-.165-.248-.165h-3.473q-.083 0-.165.041-.083.041-.083.124zm10.789.29zm3.948-.289q0 .289-.269.289h-3.369q-.31 0-.31-.289V39.805q0-.31.31-.31h3.762q.165 0 .331.31l3.824 10.459q.083.165.165.145.083-.021.083-.186l-.083-10.418q0-.31.289-.31h3.39q.248 0 .248.31v29.042q0 .289-.248.289h-3.307q-.289 0-.289-.289l-.041-7.834q0-.393-.124-.723l-4.279-11.555q-.083-.165-.186-.165-.083 0-.083.207l.186 20.071z" fill="#fff"/></svg>