<?xml version="1.0" encoding="UTF-8"?>
<!DOCTYPE svg  PUBLIC '-//W3C//DTD SVG 20010904//EN'  'http://www.w3.org/TR/2001/REC-SVG-20010904/DTD/svg10.dtd'>
<svg width="216pt" height="186pt" version="1.0" viewBox="0 0 216.000000 186.000000" xmlns="http://www.w3.org/2000/svg">
<metadata>Created by potrace 1.16, written by Peter Selinger 2001-2019</metadata>
<g transform="translate(0 186) scale(.1 -.1)">
<path d="m1665 1820c4-12 3-20-1-17-5 3-10-10-11-29-4-57-7-74-15-74-4 0-20-18-34-40-15-22-33-40-41-40s-12-4-8-9c3-5 0-13-5-16-6-4-15-18-21-32-5-13-13-22-18-19-5 4-12 0-14-6-4-10-6-10-6 0-1 7 3 22 9 32 8 15 6 20-9 25-11 3-22 12-25 20-7 19 3 19 28 0 16-12 21-11 43 15 15 19 30 27 40 23 11-4 14-2 11 8-3 8 8 29 23 47 16 18 29 38 29 45s-9-1-19-18c-10-16-34-45-53-62-31-31-35-32-55-18-12 8-24 29-28 45-4 17-13 30-21 30s-13-5-11-11c1-6-4-14-10-16-7-3-13 0-13 6s-7 11-15 11-25 11-37 25c-20 23-22 23-34 7-7-9-10-21-7-26 8-12-79 2-91 15-6 5-14 9-20 9-5 0-2-6 7-12 13-10 14-17 6-28-9-13-10-12-5 3 6 20-14 23-32 5-6-6-22-13-34-15-37-6-44-21-20-44 12-11 20-24 18-28-3-4 1-8 8-8 8 0 12 7 9 15-5 12-2 12 17 2 15-8 20-8 16-1-5 7 1 11 14 11 12 0 18 4 15 10-4 6 1 7 11 3 12-4 15-3 10 5s-1 10 11 5c10-4 22-12 26-20 4-7 15-13 23-13 9 0 12-5 8-12-5-7-3-8 6-3 10 6 12 4 6-11-5-14-4-16 4-8 9 9 9 17 0 34-8 15-8 20-1 16 6-4 11-2 11 3 0 6 10 11 23 11 19-1 20-2 7-13-8-7-16-21-18-32-4-20-4-20 11 0 16 21 29 16 33-11 2-10-3-14-12-10-8 3-14 0-14-6s-3-9-6-6c-3 4-14-2-25-13-15-15-24-17-39-9-11 6-20 16-20 23s-16 17-35 23-32 7-29 3c2-4-5-11-17-14-11-4-18-9-16-12 3-2 14 0 25 6 16 9 21 7 25-9 3-11-1-21-10-24-8-3-12-10-8-15 3-6 12-8 20-4 10 3 15-1 15-12 0-10-5-15-13-12s-14-1-14-8c0-10 5-11 17-5 9 5 22 5 29 1 7-5 40-9 74-10 33-1 63-3 65-6 8-8 43 16 37 26-4 5-1 9 4 9 6 0 11-5 11-11 0-15-50-62-58-55-3 4-12 0-21-7-24-21-48-27-48-12 0 7 6 11 13 8 6-2 15 2 20 9 4 7 4 10 0 6-5-4-19-3-32 2-17 7-24 6-24-2 0-6-3-8-7-5-3 4-13 1-21-6-11-8-14-8-9 0 4 6 3 14-3 18-5 3-10-2-11-12 0-11-3-13-6-5-2 6-9 10-14 6-16-10-9 8 9 22 15 12 15 13 1 8-20-6-92-91-95-110-1-8 3-11 9-7s8 1 5-8c-7-19 45-17 69 3 9 7 14 8 11 3-4-7 17-10 62-10 38 0 66-3 64-7-3-4-15-8-27-8-20 0-20 0-1-15s19-15-1-8c-11 3-23 10-26 15s-15 10-27 13c-16 3-19 0-15-12 4-10 2-14-4-10s-13 1-16-7c-4-10 0-12 14-9 10 3 19 9 19 14s4 9 10 9c5 0 7-7 4-15-5-11-2-13 9-9 9 3 25 0 35-8 18-12 22-18 22-35 0-5 4-2 9 6 6 9 11 10 15 2 4-6 4-11-1-12-4 0-16-2-25-4-10-2-17 0-17 3 3 22-4 30-26 30-15 0-24-5-22-12 2-6 12-10 21-8s15-3 14-10c-2-9 7-12 29-11s30-2 27-11c-5-13 9-17 59-17 15 0 27-4 27-9 0-6-11-10-24-10-14 0-28-5-31-10-4-6-14-9-23-8-13 2-16-4-15-25 1-15-2-25-7-22-4 3-10 0-12-6-2-7-12-6-30 3-24 13-25 16-12 39 19 34 17 57-6 64-11 3-20 10-20 15s-7 7-15 4c-8-4-12-11-8-18 4-6-1-5-10 3-15 12-17 12-12-2 4-8 1-18-6-23-7-4-10-3-6 2 3 5-3 10-13 10-12 0-16-4-10-11 9-11-13-49-23-38-4 3-7 0-7-8 0-11-12-15-44-15-36-1-43 2-38 15 9 26 102 112 113 105 6-4 5-11-3-22-11-12-8-12 14 2 15 10 29 17 32 17 4-1 6 1 6 4v12c0 4-5 2-12-5-15-15-32-16-22-1 7 12-45 8-81-7-18-7-18-6-6 9 7 9 11 17 7 17-13 0-44-63-39-79 3-10 2-12-4-6-10 13-28 13-40 1-4-5-3-6 3-3 7 4 14 1 17-7 7-17-8-15-52 8-32 17-33 19-15 30 20 11 52 37 84 67 9 8 22 13 28 11 7-2 12 1 12 8 0 6-4 8-10 5-5-3-10-2-10 3 0 11-50 3-67-10-7-5-16-7-21-4-6 3-15 0-21-8-8-10-9-16-1-19 6-3 5-4-2-3-7 2-12 10-12 19 1 9-3 15-8 14-6-1-12 5-13 14-2 9 2 16 9 15 29-3 116 16 111 24-3 5-1 12 5 15 6 4 9 3 8-2-6-17 18-13 30 5 13 19 11 20-43 18-30-2-58-6-62-9-3-4-18-7-32-6-23 0-24 1-6 8l20 8-20 5c-16 5-17 6-2 7 9 0 17 5 17 11 0 5-7 7-15 4-10-4-15 0-15 11 0 9 6 15 13 12 6-2 20 0 31 5 13 7 16 7 12-1-7-11 12-16 43-11 8 1 11-4 8-13-3-7 1-14 9-14 7 0 15 6 18 14 3 7-1 13-9 13s-15 7-15 15c0 9-9 15-23 15s-24 6-24 15c0 8 6 15 14 15 7 0 13 4 13 9s-9 7-20 4c-22-6-28 12-7 20 7 3 5 6-5 6-10 1-18 7-18 15 0 21-20 30-33 17-8-8-7-11 4-11 12 0 12-2-1-10s-13-10 2-10c9 0 19-4 23-9 3-6-13-8-40-5-35 3-43 1-39-10 3-8 19-20 36-27l30-12-46-24c-46-23-59-40-32-40 8 0 14 5 13 11s5 11 13 11 16-10 18-22c4-26-16-30-50-12-17 9-29 2-91-59-58-55-83-72-127-85-30-9-62-22-70-28-12-8-9-9 10-3 24 6 24 6 8-13-32-35-19-38 15-3 18 18 41 34 51 36 10 1 25 6 34 10 29 12 42 13 42 1 0-7-12-13-26-14-14 0-31-6-38-13-8-9-4-11 19-8 18 2 35-3 42-12 10-13 11-12 10 4-2 21 79 94 111 101 26 5 27 2 6-30-16-24-42-37-28-13 4 7 3 8-4 4-6-4-9-13-6-21 4-8 10-13 14-10 9 6 71-24 82-40 13-17 9-25-9-19-16 5-16 4-2-5 9-6 20-22 23-36 4-14 13-25 21-25s15-3 14-7c-3-19 14-52 23-47 6 4 5-3-1-15-14-25-3-28 14-4 15 21 27 13 64-42 29-43 29-44 6-29-13 9-27 24-30 34-7 21-35 47-35 33 0-6 11-23 25-39s25-32 25-36c0-3 13-10 28-16 32-11 92-67 92-85 0-7-10 0-21 16-11 15-26 24-31 21-6-4-17 1-24 11s-20 15-29 12c-8-4-15-2-15 4s-4 7-10 4c-5-3-10-1-10 4 0 6-9 11-20 11s-20 6-20 13c0 14-6 16-62 20-18 2-32 8-31 14 3 12-88-34-99-51-4-6-10-7-14-4-3 4 1 14 10 23 20 20 20 29 1 45-10 9-15 9-15 1 0-6 5-11 10-11 6 0 10-4 10-10 0-5-6-10-14-10s-16-5-18-12c-3-7-7-6-11 5-4 10-2 17 6 17s6 4-3 10c-12 8-12 10-1 10s9 5-5 21c-19 21-19 22 2 15 27-8 38 15 22 49-13 29-30 34-26 8 2-10-2-17-9-16-8 2-11-8-8-32 3-20 0-35-5-35-6 0-10-6-10-12 0-7-11-13-25-13-24 0-24 0-5 15 17 13 17 17 4 34-7 11-14 15-14 10 0-6 6-16 13-23 10-11 8-12-10-7-18 6-21 3-19-16 2-13 13-42 24-65 27-53 28-63 2-30-11 14-20 30-20 37 0 6-4 8-10 5-6-4-6-12 0-23 18-34 50-115 50-128 0-8-4-14-9-14s-7 8-5 18c3 9-4 26-14 38-10 11-22 26-26 34-3 8-4 3-2-12 2-16 1-28-2-28-11 0-31 37-32 58 0 12-4 22-10 22-11 0-9-28 3-47 5-8 3-13-5-13-8-1-6-6 6-15 11-8 16-15 10-15-15 1-44 26-37 33 3 4 1 7-6 7-9 0-11 8-8 21 3 12 0 22-9 26-8 3-11 10-7 16s0 8-8 5c-10-4-14 3-14 26 0 17 5 34 10 39 6 4 3 12-7 21-15 11-16 18-7 47 7 19 16 40 22 47 5 7 7 15 4 19-4 3-12-7-19-23s-16-31-20-34-9-36-11-73c-2-49 1-71 10-79 11-9 12-13 1-19-8-5-9-9-2-9s10-16 8-40c-2-29 2-42 14-50 10-5 12-10 5-10s-13-12-13-26 4-23 9-20c4 3 7-5 6-18-2-18 1-23 15-19 16 4 37-23 25-35-3-3-5 0-5 6 0 7-5 12-11 12-5 0-8-4-5-9 8-12-28-21-44-11-7 4-10 15-7 24 3 8 2 18-4 22-5 3-7 14-4 25 4 13 2 19-9 19-9 0-16 5-16 11 0 5-5 7-11 4-6-5-4-12 8-21 10-7 14-14 9-14s-1-9 9-20 13-20 8-20c-6 0-16 7-23 15s-17 15-23 15-1-7 11-16c12-8 20-19 17-24-10-17 27-60 59-69 17-5 23-10 13-10-10-1-15-5-12-11 8-13-16-13-35 1-13 9-12 10 3 5 27-9 20 9-9 23-23 10-26 10-20-5s4-15-11-3-16 12-10-4c4-11 3-16-3-12s-9 14-8 23c2 9-3 16-9 15-7-2-13 2-13 8s8 8 18 5c12-4 19-1 19 8 0 8-3 15-6 14-3 0-19 0-36 1-26 1-27 3-12 12 9 5 22 7 27 4s7 1 4 9-11 13-18 10c-12-5-31 46-27 69 0 4-3 7-8 7s-8 21-7 46-2 48-6 50c-5 3-8 26-8 51 0 38 3 44 16 39s14-4 5 7c-14 18 9 68 52 115 17 18 25 32 18 32-11 0-11 3 0 18 13 15 12 16-4 3-10-8-37-52-59-98-40-81-41-87-44-195-3-102-5-113-27-135-13-13-46-31-73-39l-49-14 45 6c25 3 49 9 55 15 5 5 13 9 18 9s-1-9-14-20c-31-26-19-25 28 1 21 12 35 18 31 13-4-4-3-13 3-20 11-14 19-83 9-82-3 1-17-4-32-10s-35-9-43-6c-10 4-15 0-15-10 0-15-3-15-38-1-24 11-33 12-25 4 7-7 13-18 13-23 0-6-7 0-16 13-12 17-22 21-40 17-17-5-29 0-41 14s-19 16-24 8c-6-9-13-8-27 5-10 9-22 14-27 10-4-5-5 0-2 9 5 13 1 18-13 18-11 0-20 5-20 11s7 8 16 5c8-3 12-2 9 4s-13 10-20 10c-9 0-12 6-8 17 5 12 3 14-7 8s-12-4-7 7c4 12 1 14-16 10l-22-6 19 30c15 21 15 26 4 16-14-11-17-10-23 7-10 31-16 62-24 121l-8 55-2-50c-1-71 24-180 54-230 32-55 75-91 152-128 65-30 157-41 215-24 18 4 31 3 40-6 7-8 18-12 25-10 20 7 26-18 7-32-11-8-15-15-10-15s2-8-5-17c-12-15-12-16 1-8 12 6 12 5 4-4-9-10-17-10-34-1-22 12-22 11-16-26 4-22 15-46 24-54 14-14 15-13 3 3-11 14-11 17 0 17 10 0 10 3 1 12-7 7-12 18-12 25 0 10 5 10 25 1 14-6 21-14 16-17-6-4-6-12-1-21 6-8 10-11 10-6 0 6 7 1 16-10 8-10 13-13 9-6-7 14 1 14 30 2 11-5 14-9 8-9-7-1-13-6-13-12 0-7 10-9 28-4 26 6 26 6 7-9-26-20-55-20-55 0 0 8-4 13-9 10-4-3-6-18-3-32 3-17 1-25-5-21s-8-4-5-20c4-21 2-25-10-20-9 3-21 0-28-6-10-10-11-4-7 25s3 36-9 31c-10-4-14 4-15 33l-1 39-9-48c-9-43-7-51 16-81 23-31 30-34 74-32 32 0 47 5 44 12-6 17 17 28 29 16 8-8 7-16-3-28-13-16-12-16 8-6 12 7 25 17 28 22 3 6 14 10 23 10 10 0 25 9 34 20 16 18 15 21-24 62-37 39-40 45-35 83 4 23 27 78 52 123 32 56 46 94 47 120 1 73 44 74 135 6 23-18 47-34 53-36s13-28 16-58c4-31 14-64 24-75s27-41 39-67c20-44 61-88 85-88 22-1 48-29 61-67l14-38 1 43c0 23 4 42 8 42s8 9 8 19c0 11-3 18-7 15-4-2-10 2-13 8-3 9-9 8-20-6-14-17-16-17-22-3-3 9-10 15-14 12-5-3-18 4-29 16-24 26-75 128-68 135 3 3-1 21-9 41-8 19-11 32-5 29 5-4 12-2 16 4 3 5 0 10-7 10-11 0-58 88-58 109 0 4 10 13 23 20 22 11 22 11-3 5-22-6-23-5-11 10 15 17 51 22 51 6 0-5 8-7 18-3 13 5 12 0-7-20-23-25-23-26-2-20 15 4 21 1 19-7-2-7 3-15 10-17 14-6 12 18-3 30-7 6-6 10 2 13 7 3 10 11 7 18-3 9 3 13 18 11 13-1 29-3 36-4 6 0 12-6 12-12 0-5-4-8-9-5-4 3-16-3-26-14-12-13-14-20-6-20 9 0 8-5-3-15-8-8-20-15-27-15-8 0-8-4 2-16 11-14 10-15-7-12-12 2-18-2-16-11s-3-11-13-7c-9 3-13 2-10-4s12-10 18-10c7 0 13-9 14-20s-2-18-8-15c-5 4-9 1-9-5 0-7 8-9 21-5 18 6 20 4 14-14-5-17-3-20 11-14 11 4 15 3 10-5-4-8 3-8 26-1 40 11 38 11 38-1 0-5-6-10-14-10s-17-4-21-10c-3-5 6-5 24 1 17 6 36 9 43 6 7-2 1-8-14-12-16-4-28-11-28-16 0-4 14-3 30 3 38 13 62 5 53-18-5-13-3-15 8-9 8 5 11 5 6-1-5-5-12-9-16-9s-16-9-27-19c-17-17-17-19-1-13 11 4 17 2 17-9 0-13 4-13 30 1 27 14 30 14 30-1 0-9-18-36-40-61s-40-51-40-57 4-5 9 3c5 7 14 10 20 6 9-5 7-11-6-20-17-13-16-14 6-8 17 4 22 3 17-5s-1-10 9-5c13 5 14 7 3 14-10 7-9 9 5 9 9 0 17-4 17-10 0-5 8-10 18-10 14 0 15 2 2 10-12 7-11 10 5 16 11 4 25 10 30 12 6 3 4-1-3-10-10-13-10-17 0-21 25-8 1-17-54-20-41-1-55-6-54-17 1-8-7-14-16-14-10 1-16-5-15-16 1-14 5-15 29-6 16 6 23 13 17 17-16 9-1 16 53 23 26 4 56 9 65 12 11 4 14 2 8-3-25-20-14-58 16-55 13 1 3-54-14-71-10-10-16-22-12-25 4-4 11 1 16 11 11 19 18 21 37 9 9-6 10-16 1-40-9-27-13-30-33-21-23 11-73 120-69 152 2 9-2 17-8 17-7 0-9-11-6-26 3-19 0-27-16-33-18-7-18-8-4-14 28-11 19-31-19-43l-36-12 5 43c3 35 2 41-8 32-7-7-11-20-9-31 2-14-1-17-16-13-11 3-20 1-20-4s7-9 15-9c20 0 19-17-2-29-15-9-12-10 15-11 17 0 32 4 32 9 0 17 34 22 48 7 23-23 7-50-24-42-17 5-23 3-19-4 10-17 51-11 70 10l18 20 35-20c40-24 64-20 82 15 8 16 22 25 37 25 47 0 40 39-24 116l-33 41 27 19c19 12 43 17 72 15 31-2 41 1 36 9-4 7-2 15 4 19 8 5 6 15-8 33-11 14-27 62-36 113-14 74-15 98-5 151 7 35 10 71 6 79-3 9-2 13 4 10s10 3 10 14c0 10-6 22-12 24-8 4-7 6 4 6 12 1 17 13 20 51 1 28-1 50-6 50s-3 7 4 15 9 15 4 15c-13 0-15 91-3 106 18 22 72 24 189 9 215-29 224-29 254-10 15 10 34 31 42 47 15 29 15 30-6 23-22-7-80 11-80 25 0 5 6 10 13 13 18 7-1 22-48 38l-40 13 40 7c76 15 95 11 131-25 19-19 34-43 34-55 0-27 11-27 39 3 18 19 24 40 28 90 5 59 3 70-21 106-31 47-32 68-7 112 36 60 37 232 1 178-5-8-10-19-10-25 0-5 5-3 10 5 7 11 9 4 9-25-1-52-12-90-26-90-6 0-15-4-20-9s-3-6 5-2c6 4 12 3 12-2s-9-12-21-15-18-10-15-15-2-16-11-23c-12-10-14-10-9-1 4 7 1 12-9 12s-13-5-9-12c5-9 2-9-9 1-26 20-21 37 17 61 19 11 44 36 55 54 28 45 27 57-2 15-12-18-38-44-57-57-36-24-32-24-167-7-47 6-69 20-83 55-11 27-10 34 14 68 14 21 49 60 77 87 46 44 89 109 89 135 0 6-21-13-47-42s-54-53-62-53c-23-1-44-17-64-47-10-16-26-28-37-28-12 0-17-5-14-13 7-18-24-43-36-31-13 13 40 76 98 116 26 18 48 31 50 30 5-5 27 13 52 43l25 30-25-21c-14-12-40-29-58-39-19-9-67-48-108-86-105-96-130-94-72 7 25 45 32 71 36 129 3 51 1 75-8 80s-10 1-5-15zm68-417c-13-5-6-33 8-33 5 0 8 3 8 8-3 20 2 32 16 32 8 0 15-7 15-16 0-8-4-12-10-9-5 3-10 2-10-4 0-21 19-20 34 1 13 18 16 19 16 5 0-9-5-17-11-17-5 0-8-4-4-10 3-5 13-7 23-4 14 5 14 4 3-4-9-7-23-7-39-1-18 7-29 6-36-2-8-9-8-10 1-5 7 4 9-1 5-16-3-13-1-19 5-15 13 8 37-19 29-32-4-5 2-12 11-14 10-3 6-4-9-4-15 1-30 8-33 15-3 10 0 12 10 8 8-3 15-2 15 3 0 16-13 21-27 10-9-8-13-8-13-1s-7 9-17 5c-14-5-13-8 7-15 18-7 20-11 10-23-11-13-10-14 5-9 11 5 16 4 12-3-4-6 3-8 20-5 21 4 25 2 20-12-5-11-1-16 14-16 13 0 18-4 13-12-6-10-5-10 8-1 8 7 18 9 22 5s14 2 22 12c11 16 14 17 14 4 0-24-21-35-70-33-30 0-49-4-58-15-11-13-11-13-6 3 5 13 2 16-12 11-15-6-17-4-7 6 9 10 8 16-3 28-12 12-18 12-27 2s-9-11 0-6c6 3 14 2 18-4 3-5-2-10-12-10-20 0-56 20-36 20 8 0 10 7 6 17-4 9-8 12-10 6-2-5-16-8-31-7-15 2-21 1-14-2 6-3 9-11 5-17-4-7 2-5 12 3 17 14 18 13 12-2-4-13-1-18 11-18 14-1 13-4-7-20-13-11-17-20-10-20s10-2 7-5-13-2-23 1c-15 6-15 8 6 20 26 15 24 16-49 23-7 0-10 6-7 12 4 6-1 5-13-2-17-10-25-9-53 9-19 12-27 22-18 22 8 0 21-6 28-12 11-10 13-10 7 0-5 8 1 12 18 12 14 0 28 5 31 10 3 6 11 10 16 10 6 0 7-5 3-12-13-20 19 4 45 34 15 19 29 27 41 23 10-3 21-1 25 5 3 6 11 8 16 5 15-10 10 2-8 16-14 12-16 12-8 0 6-11 4-13-7-9-8 4-31-3-49-14l-34-20 19 21c11 11 14 21 9 21-6 0-16-7-23-15s-17-15-23-15-1 9 11 20c12 12 28 20 35 19 29-4 35 2 32 29-3 26-1 29 28 29 18 0 27-2 20-4zm-642-437c27-17 49-38 48-46 0-12-2-12-12 2-14 18-94 31-103 17-3-5 15-9 39-9 44 0 86-27 70-45-5-4-2-5 5-1s12 1 12-8c0-20-9-20-34-1-11 8-27 15-35 15-9-1-2-7 14-14 34-15 83-64 53-53-13 4-16 2-12-11 5-16 5-16-8 0-10 11-19 14-29 7-12-7-12-9 1-10 8-1 2-5-15-9l-30-8 28-1c15 0 27-7 27-14 0-15-42-18-52-3-5 7-8 7-8-1 0-7-7-13-15-13s-15 7-15 15c0 21-9 19-30-5-11-13-21-17-25-10-9 15-25 12-25-5 0-8-5-15-10-15-7 0-7 6 0 19 7 14 7 22 0 26-8 5-7 12 2 23 10 12 10 16 1 19-7 3-13 9-13 14 0 6 5 7 12 3s8-3 4 5c-4 6 0 24 9 39 14 23 12 22-13-5-16-18-33-33-38-33s-2 5 6 10c13 8 12 10-2 10-10 0-18 5-18 11s7 9 15 5c10-3 15 1 15 12 0 10 5 23 12 30 9 9 9 12 1 12-7 0-15-9-18-20-9-28-25-25-25 5 0 16 10 31 28 42 15 10 33 23 39 29 20 19 90 4 144-30z"/>
</g>
</svg>
